<svg xmlns="http://www.w3.org/2000/svg" viewBox="0 0 768 1024" role="img" aria-labelledby="title desc">
  <title id="title">Tarjeta Aplicación</title>
  <desc id="desc">Tarjeta azul de la fase aplicación con portapapeles y botón jugar.</desc>
  <defs>
    <linearGradient id="card" x1="0" x2="1" y1="0" y2="1">
      <stop offset="0" stop-color="#12aaff"/>
      <stop offset="1" stop-color="#0759d8"/>
    </linearGradient>
    <linearGradient id="edge" x1="0" x2="1" y1="0" y2="1">
      <stop offset="0" stop-color="#3af3ff"/>
      <stop offset="1" stop-color="#0874ff"/>
    </linearGradient>
    <linearGradient id="button" x1="0" x2="1" y1="0" y2="1">
      <stop offset="0" stop-color="#18d7ff"/>
      <stop offset="1" stop-color="#006fd8"/>
    </linearGradient>
    <linearGradient id="clip" x1="0" x2="1" y1="0" y2="1">
      <stop offset="0" stop-color="#d9f4ff"/>
      <stop offset="1" stop-color="#7fa8c7"/>
    </linearGradient>
    <filter id="shadow" x="-20%" y="-20%" width="140%" height="150%">
      <feDropShadow dx="0" dy="12" stdDeviation="10" flood-color="#052c80" flood-opacity=".38"/>
    </filter>
  </defs>

  <rect x="22" y="22" width="724" height="980" rx="72" fill="url(#edge)"/>
  <rect x="50" y="50" width="668" height="924" rx="54" fill="url(#card)" filter="url(#shadow)"/>
  <rect x="72" y="72" width="624" height="880" rx="44" fill="none" stroke="#20e8ff" stroke-width="9" opacity=".85"/>

  <text x="384" y="172" text-anchor="middle" font-family="Arial Rounded MT Bold, Arial, sans-serif" font-size="88" font-weight="900" fill="#fff" stroke="#082f91" stroke-width="9" paint-order="stroke">APLICACIÓN</text>

  <g transform="translate(170 255) rotate(4 214 250)">
    <rect x="62" y="42" width="330" height="438" rx="32" fill="#ff9d08" stroke="#573016" stroke-width="16"/>
    <rect x="88" y="78" width="278" height="360" rx="22" fill="#fff9ec" stroke="#6b431d" stroke-width="8"/>

    <g transform="translate(148 -20)">
      <path d="M34 44h50c6-35 58-35 64 0h50c14 0 24 10 24 24v60c0 14-10 24-24 24H34c-14 0-24-10-24-24V68c0-14 10-24 24-24z" fill="url(#clip)" stroke="#1b4872" stroke-width="9"/>
      <circle cx="116" cy="45" r="20" fill="#1b4872"/>
      <circle cx="116" cy="45" r="12" fill="#e6f7ff"/>
      <rect x="28" y="82" width="176" height="26" rx="8" fill="#9fc7df"/>
    </g>

    <g transform="translate(118 144)">
      <rect x="0" y="0" width="62" height="62" rx="10" fill="#50d727" stroke="#08721d" stroke-width="7"/>
      <path d="M13 30l15 17 39-43" fill="none" stroke="#fff" stroke-width="10" stroke-linecap="round" stroke-linejoin="round"/>
      <path d="M105 28h160" stroke="#315d86" stroke-width="9" stroke-linecap="round"/>
    </g>
    <g transform="translate(118 250)">
      <rect x="0" y="0" width="62" height="62" rx="10" fill="#50d727" stroke="#08721d" stroke-width="7"/>
      <path d="M13 30l15 17 39-43" fill="none" stroke="#fff" stroke-width="10" stroke-linecap="round" stroke-linejoin="round"/>
      <path d="M105 28h150" stroke="#315d86" stroke-width="9" stroke-linecap="round"/>
    </g>
    <g transform="translate(118 356)">
      <rect x="0" y="0" width="62" height="62" rx="10" fill="#50d727" stroke="#08721d" stroke-width="7"/>
      <path d="M13 30l15 17 39-43" fill="none" stroke="#fff" stroke-width="10" stroke-linecap="round" stroke-linejoin="round"/>
      <path d="M105 28h144" stroke="#315d86" stroke-width="9" stroke-linecap="round"/>
    </g>
  </g>

  <rect x="118" y="795" width="532" height="146" rx="38" fill="url(#button)" stroke="#25e8ff" stroke-width="13"/>
  <rect x="138" y="815" width="492" height="106" rx="30" fill="none" stroke="#94efff" stroke-width="5" opacity=".72"/>
  <text x="384" y="894" text-anchor="middle" font-family="Arial Rounded MT Bold, Arial, sans-serif" font-size="76" font-weight="900" fill="#fff" stroke="#08328f" stroke-width="8" paint-order="stroke">JUGAR</text>
</svg>
