<svg xmlns="http://www.w3.org/2000/svg" viewBox="0 0 512 512" role="img" aria-labelledby="title">
  <title id="title">Tabla de clasificación</title>
  <rect x="0" y="467" width="512" height="45" rx="18" fill="#34495e"/>
  <path d="M229 147h54v93h-54z" fill="#f6a21a"/>
  <path d="M256 0c12 0 23 7 28 18l21 43c4 8 11 13 20 14l47 6c13 2 24 11 28 24s0 27-9 36l-34 34c-6 6-9 15-8 23l8 48c2 13-3 27-14 35s-25 9-37 3l-42-22c-7-4-16-4-24 0l-42 22c-12 6-26 5-37-3s-16-22-14-35l8-48c1-8-2-17-8-23l-34-34c-9-9-13-23-9-36s15-22 28-24l47-6c9-1 16-6 20-14l21-43c5-11 16-18 28-18z" fill="#f6cf1f"/>
  <path d="M34 291c0-10 8-18 18-18h124v194H34z" fill="#24b466"/>
  <path d="M176 232c0-11 9-20 20-20h120c11 0 20 9 20 20v235H176z" fill="#53bd72"/>
  <path d="M336 291h124c10 0 18 8 18 18v158H336z" fill="#24b466"/>
  <path d="M107 414h72v18H70v-8c0-18 9-33 27-47l27-21c10-8 15-16 15-25 0-14-10-24-25-24-16 0-27 11-29 30H68c2-29 21-49 47-49 25 0 43 17 43 41 0 15-8 29-24 42l-27 21c-10 8-16 15-18 22z" fill="#f7fbff"/>
  <path d="M255 378h43v22h-108v-22h42v-91l-31 30-14-16 51-51h17z" fill="#f7fbff"/>
  <path d="M403 431c-28 0-48-18-50-44h19c2 16 14 27 31 27s29-11 29-27c0-17-12-27-32-27h-13v-17h13c17 0 28-10 28-25 0-14-10-24-25-24-16 0-26 10-28 26h-19c3-25 21-42 47-42s44 17 44 39c0 16-9 29-24 34 18 5 29 18 29 36 0 26-20 44-49 44z" fill="#f7fbff"/>
</svg>
